<?xml version="1.0" standalone="no"?>
<!DOCTYPE svg PUBLIC "-//W3C//DTD SVG 20010904//EN"
 "http://www.w3.org/TR/2001/REC-SVG-20010904/DTD/svg10.dtd">
<svg version="1.0" xmlns="http://www.w3.org/2000/svg"
 width="301.000000pt" height="137.000000pt" viewBox="0 0 301.000000 137.000000"
 preserveAspectRatio="xMidYMid meet">

<g transform="translate(0.000000,137.000000) scale(0.100000,-0.100000)"
fill="#000000" stroke="none">
<path d="M1062 1339 c-211 -31 -385 -136 -454 -277 -32 -66 -33 -207 -1 -268
109 -205 504 -288 916 -193 78 18 89 24 98 47 10 26 11 26 24 8 8 -10 16 -23
17 -27 2 -5 48 -21 103 -36 88 -23 119 -27 260 -27 122 0 175 4 224 17 147 40
219 110 208 205 -8 77 -59 115 -252 191 -253 100 -289 123 -287 182 3 125 205
159 389 66 29 -15 64 -27 78 -27 23 0 25 4 25 45 0 50 -9 58 -95 82 -72 20
-286 28 -371 14 -117 -20 -207 -70 -240 -133 -19 -36 -18 -102 2 -139 23 -46
117 -100 276 -159 177 -66 211 -82 237 -116 29 -37 26 -70 -7 -104 -36 -35
-87 -50 -179 -50 -117 0 -276 61 -338 130 -28 31 -85 27 -126 -10 -141 -127
-413 -159 -592 -69 -54 27 -113 83 -140 134 -30 56 -30 162 0 227 47 103 174
192 311 219 124 24 312 -2 384 -52 14 -11 40 -19 57 -19 31 0 31 0 31 55 l0
54 -37 10 c-115 30 -379 40 -521 20z"/>
<path d="M1112 964 c-147 -14 -262 -30 -269 -38 -3 -2 -2 -19 2 -36 6 -27 10
-31 33 -26 83 16 463 28 762 24 326 -5 334 -5 285 12 -27 9 -78 31 -112 49
l-62 31 -253 -1 c-139 -1 -313 -7 -386 -15z"/>
<path d="M380 824 c-132 -42 -216 -75 -150 -60 14 4 84 18 155 32 72 14 140
27 153 30 26 5 27 37 2 41 -8 1 -80 -18 -160 -43z"/>
<path d="M2471 846 c9 -18 22 -26 53 -30 23 -4 91 -18 151 -31 60 -14 110 -23
113 -21 4 4 -242 86 -300 100 -26 6 -27 5 -17 -18z"/>
<path d="M650 317 c-50 -33 -73 -78 -72 -143 1 -99 60 -158 157 -158 82 0 133
42 148 122 l7 32 -71 0 c-44 0 -68 -4 -64 -10 3 -5 28 -10 56 -10 42 0 49 -3
49 -19 0 -30 -47 -79 -85 -90 -68 -18 -135 13 -161 76 -57 134 83 257 201 178
39 -27 57 -27 35 0 -41 49 -144 61 -200 22z"/>
<path d="M1472 323 c-62 -30 -101 -108 -88 -178 10 -51 66 -110 119 -125 75
-21 158 15 193 82 22 43 20 121 -5 161 -42 68 -145 97 -219 60z m146 -23 c50
-30 74 -76 69 -131 -11 -131 -164 -182 -246 -81 -56 67 -35 178 42 216 44 21
95 20 135 -4z"/>
<path d="M1060 175 c0 -97 4 -155 10 -155 6 0 10 32 10 75 0 54 4 75 13 75 7
0 37 -34 66 -75 30 -41 61 -75 69 -75 10 0 7 9 -12 35 -14 19 -37 50 -51 68
-30 40 -32 57 -7 57 49 0 71 91 32 130 -15 15 -33 20 -75 20 l-55 0 0 -155z
m112 118 c42 -38 6 -103 -57 -103 l-35 0 0 60 0 60 37 0 c20 0 45 -7 55 -17z"/>
<path d="M1890 206 c0 -118 1 -126 25 -154 46 -55 150 -50 180 8 18 34 22 270
5 270 -6 0 -10 -45 -10 -115 0 -131 -9 -160 -55 -175 -43 -14 -80 -4 -105 27
-17 22 -20 41 -20 144 0 73 -4 119 -10 119 -6 0 -10 -48 -10 -124z"/>
<path d="M2300 175 c0 -92 4 -155 10 -155 5 0 10 33 12 73 l3 72 54 5 c62 7
81 25 81 82 0 58 -26 78 -100 78 l-60 0 0 -155z m129 104 c23 -41 8 -76 -38
-90 -61 -18 -71 -9 -71 61 l0 61 47 -3 c39 -2 50 -8 62 -29z"/>
</g>
</svg>
