<?xml version="1.0" standalone="no"?>
<!DOCTYPE svg PUBLIC "-//W3C//DTD SVG 20010904//EN"
 "http://www.w3.org/TR/2001/REC-SVG-20010904/DTD/svg10.dtd">
<svg version="1.0" xmlns="http://www.w3.org/2000/svg"
 width="320.000000pt" height="102.000000pt" viewBox="0 0 320.000000 102.000000"
 preserveAspectRatio="xMidYMid meet">

<g transform="translate(0.000000,102.000000) scale(0.100000,-0.100000)"
fill="#000000" stroke="none">
<path d="M2767 863 c-4 -3 -7 -127 -7 -275 l0 -268 40 0 40 0 0 139 c0 133 1
141 22 155 31 22 84 20 108 -4 18 -18 20 -33 20 -155 l0 -135 40 0 c51 0 55
13 47 177 -7 142 -15 161 -79 194 -41 21 -95 23 -140 4 -16 -6 -18 1 -18 84
l0 91 -33 0 c-19 0 -37 -3 -40 -7z"/>
<path d="M899 850 c-106 -18 -164 -112 -125 -203 22 -51 59 -79 113 -84 74 -7
92 -12 113 -33 28 -28 26 -75 -5 -105 -31 -31 -100 -33 -163 -5 l-43 19 -19
-32 c-11 -18 -20 -35 -20 -38 0 -4 23 -17 52 -29 41 -17 65 -21 117 -18 121 7
181 57 181 151 0 100 -51 152 -160 164 -90 9 -122 47 -85 99 27 39 67 48 130
29 32 -9 58 -15 60 -13 8 10 25 48 25 57 0 26 -106 52 -171 41z"/>
<path d="M1760 826 c0 -13 -3 -31 -6 -40 -5 -14 5 -16 70 -16 l76 0 0 -225 0
-225 40 0 40 0 0 225 0 225 76 0 c65 0 75 2 70 16 -3 9 -6 27 -6 40 l0 24
-180 0 -180 0 0 -24z"/>
<path d="M450 670 l0 -50 50 0 50 0 0 50 0 50 -50 0 -50 0 0 -50z"/>
<path d="M1234 686 c-72 -32 -117 -141 -94 -226 15 -57 80 -124 135 -139 41
-11 92 -4 133 18 25 13 26 20 10 56 -13 29 -16 30 -42 10 -38 -29 -112 -13
-140 30 -14 21 -13 23 7 29 12 3 66 6 120 6 l97 0 0 53 c0 59 -28 118 -72 150
-34 25 -113 32 -154 13z m116 -86 c11 -11 20 -29 20 -40 0 -18 -7 -20 -75 -20
-83 0 -91 7 -54 54 26 33 79 36 109 6z"/>
<path d="M1547 685 c-51 -17 -52 -19 -37 -55 9 -23 17 -29 29 -24 9 4 40 9 68
12 58 5 83 -7 83 -40 0 -16 -5 -18 -33 -13 -48 9 -108 -10 -140 -43 -72 -76
-23 -200 80 -202 15 0 61 0 101 0 l72 0 0 141 c0 161 -10 197 -65 223 -40 19
-107 20 -158 1z m131 -204 c8 -5 12 -22 10 -42 -3 -30 -7 -35 -40 -43 -68 -17
-117 42 -66 78 24 17 75 21 96 7z"/>
<path d="M2155 681 c-88 -54 -119 -164 -74 -258 41 -84 121 -122 211 -98 66
17 73 26 54 63 -15 30 -17 30 -43 16 -47 -24 -91 -18 -125 16 -17 17 -27 34
-23 38 3 4 57 9 118 12 l112 5 -1 57 c-1 44 -7 67 -27 96 -44 68 -139 93 -202
53z m124 -87 c37 -47 29 -54 -59 -54 l-80 0 11 28 c21 58 92 72 128 26z"/>
<path d="M2503 675 c-71 -43 -105 -156 -72 -242 13 -34 55 -80 91 -99 36 -19
108 -18 157 2 l40 16 -16 32 -15 33 -50 -14 c-38 -12 -55 -12 -77 -4 -63 27
-83 134 -34 191 24 29 30 31 72 27 25 -2 55 -8 66 -11 17 -6 24 0 38 28 l16
35 -51 16 c-73 21 -116 19 -165 -10z"/>
<path d="M290 434 c-66 -24 -135 -78 -180 -142 -22 -30 -39 -57 -37 -58 2 -2
38 14 81 35 103 52 191 68 288 52 91 -15 163 -48 299 -138 58 -38 127 -75 152
-83 85 -23 193 7 313 86 38 25 60 42 49 38 -141 -52 -282 -56 -395 -10 -36 15
-118 64 -183 110 -64 47 -139 92 -165 101 -71 24 -168 28 -222 9z"/>
<path d="M1350 270 c-8 -5 -12 -12 -9 -15 8 -8 39 5 39 16 0 11 -11 11 -30 -1z"/>
<path d="M2415 269 c-12 -19 5 -23 22 -6 16 16 16 17 1 17 -9 0 -20 -5 -23
-11z"/>
<path d="M1447 230 c-36 -29 -38 -83 -3 -106 28 -18 67 -16 74 4 3 9 -3 11
-20 7 -17 -4 -29 0 -43 14 -27 31 -7 71 35 71 16 0 30 5 30 10 0 6 -4 10 -9
10 -5 0 -16 2 -23 5 -8 3 -26 -4 -41 -15z"/>
<path d="M1570 237 c-13 -7 -28 -25 -33 -41 -19 -56 57 -112 95 -69 50 58 3
142 -62 110z m48 -29 c28 -28 2 -88 -33 -74 -21 8 -29 31 -21 61 7 27 34 33
54 13z"/>
<path d="M1676 243 c-3 -3 -6 -35 -6 -70 l0 -63 45 0 c25 0 45 5 45 10 0 6
-13 10 -30 10 -30 0 -30 1 -30 54 0 51 -9 74 -24 59z"/>
<path d="M1930 180 l0 -70 33 0 c20 0 41 8 50 18 17 19 22 68 9 88 -11 16 -48
34 -71 34 -19 0 -21 -6 -21 -70z m70 21 c14 -27 13 -37 -6 -55 -29 -30 -44
-20 -44 29 0 38 3 45 20 45 10 0 24 -9 30 -19z"/>
<path d="M2043 235 c-3 -9 -3 -18 0 -21 9 -9 27 6 27 22 0 19 -19 18 -27 -1z"/>
<path d="M2087 243 c-4 -3 -7 -35 -7 -70 0 -49 3 -63 15 -63 12 0 15 14 15 70
0 64 -6 81 -23 63z"/>
<path d="M2137 243 c-4 -3 -7 -35 -7 -70 0 -49 3 -63 15 -63 11 0 15 11 15 43
l0 42 23 -40 c12 -22 30 -41 40 -43 15 -3 17 5 17 62 0 52 -3 66 -15 66 -11 0
-15 -11 -15 -37 l-1 -38 -25 43 c-26 42 -34 48 -47 35z"/>
<path d="M2292 239 c-26 -10 -45 -53 -37 -80 16 -50 72 -65 99 -27 24 34 20
48 -14 48 -16 0 -30 -4 -30 -10 0 -5 7 -10 16 -10 13 0 14 -3 4 -15 -16 -19
-50 -2 -50 25 0 36 12 50 41 50 16 0 29 4 29 9 0 13 -33 19 -58 10z"/>
<path d="M2497 243 c-11 -10 -8 -133 2 -133 6 0 11 19 13 43 l3 42 24 -42 c36
-63 51 -56 51 22 0 37 -4 65 -10 65 -5 0 -10 -19 -10 -42 l0 -43 -30 48 c-32
50 -33 51 -43 40z"/>
<path d="M2616 243 c-3 -3 -6 -35 -6 -70 0 -49 3 -63 15 -63 12 0 15 14 15 64
0 60 -8 84 -24 69z"/>
<path d="M2766 243 c-12 -12 -6 -89 10 -111 18 -27 55 -29 77 -4 22 25 24 112
2 112 -11 0 -15 -12 -15 -49 0 -35 -4 -51 -16 -55 -26 -10 -34 3 -34 54 0 46
-9 67 -24 53z"/>
<path d="M2897 243 c-4 -3 -7 -35 -7 -70 0 -49 3 -63 15 -63 9 0 15 9 15 25 0
32 14 32 28 0 6 -14 19 -25 27 -25 14 0 14 3 0 29 -9 19 -11 32 -5 36 6 3 10
17 10 31 0 17 -8 27 -26 34 -30 12 -48 13 -57 3z m56 -38 c1 -5 -6 -11 -15
-13 -11 -2 -18 3 -18 13 0 17 30 18 33 0z"/>
<path d="M3033 239 c-11 -4 -24 -12 -27 -18 -11 -17 12 -49 36 -53 33 -4 29
-33 -4 -33 -35 0 -45 -11 -18 -20 29 -9 66 1 74 21 9 23 -10 52 -36 56 -32 4
-29 22 5 26 15 2 27 7 27 11 0 13 -33 19 -57 10z"/>
<path d="M1320 175 l0 -65 45 0 c25 0 45 5 45 10 0 6 -16 10 -35 10 -28 0 -35
4 -35 20 0 16 7 20 30 20 17 0 30 5 30 10 0 6 -13 10 -30 10 -20 0 -30 5 -30
15 0 10 10 15 30 15 17 0 30 5 30 10 0 6 -18 10 -40 10 l-40 0 0 -65z"/>
<path d="M1770 175 l0 -65 45 0 c25 0 45 5 45 10 0 6 -13 10 -30 10 -23 0 -30
4 -30 20 0 15 7 20 25 20 14 0 25 5 25 10 0 6 -11 10 -25 10 -16 0 -25 6 -25
15 0 10 10 15 30 15 17 0 30 5 30 10 0 6 -20 10 -45 10 l-45 0 0 -65z"/>
<path d="M2380 175 l0 -65 45 0 c25 0 45 5 45 10 0 6 -13 10 -30 10 -23 0 -30
4 -30 20 0 15 7 20 25 20 14 0 25 5 25 10 0 6 -11 10 -25 10 -16 0 -25 6 -25
15 0 9 9 15 24 15 14 0 28 5 31 10 4 6 -12 10 -39 10 l-46 0 0 -65z"/>
<path d="M2660 175 l0 -65 45 0 c25 0 45 5 45 10 0 6 -13 10 -30 10 -23 0 -30
4 -30 20 0 15 7 20 25 20 14 0 25 5 25 10 0 6 -11 10 -25 10 -16 0 -25 6 -25
15 0 9 9 15 25 15 14 0 25 5 25 10 0 6 -18 10 -40 10 l-40 0 0 -65z"/>
</g>
</svg>
